# xmcd
# 
# Track frame offsets:
#     150
#     16437
#     29863
#     47259
#     60442
#     75304
#     92335
#     106370
#     126218
#     137974
#     151424
#     166436
#     180364
# 
# Disc length: 2667
# 
# Revision: 0
# Processed by: cddbd v1.5.2PL0 Copyright (c) Steve Scherf et al.
# Submitted via: fre:ac v1.0.17
# 
DISCID=9b0a690d
DTITLE=David Church - Softer Side of Blue
DYEAR=0
DGENRE=Country
TTITLE0=Softer Side of Blue
TTITLE1=Lord Have Mercy On A Country Boy
TTITLE2=He Walked All The Way Home
TTITLE3=I Heard My Mother Call My Name in Prayer
TTITLE4=If My Hands Could Touch
TTITLE5=Living By The Book
TTITLE6=Once In A Lifetime
TTITLE7=John Deere Tractor
TTITLE8=Settin' The Woods On Fire
TTITLE9=Help Me Understand
TTITLE10=Tear Drop On A Rose
TTITLE11=Cajun Baby
TTITLE12=Roy's Song (Allis Chambers)
EXTD=
EXTT0=
EXTT1=
EXTT2=
EXTT3=
EXTT4=
EXTT5=
EXTT6=
EXTT7=
EXTT8=
EXTT9=
EXTT10=
EXTT11=
EXTT12=
PLAYORDER=
